<svg xmlns="http://www.w3.org/2000/svg" xmlns:xlink="http://www.w3.org/1999/xlink" xmlns:lucid="lucid" width="1650" height="1346"><g transform="translate(-55 -69)" lucid:page-tab-id="FhEp0Ub1AvzZ"><path d="M0 0h1760v2656H0z" fill="#fff"/><path d="M75 96c0-3.3 2.7-6 6-6h1598c3.3 0 6 2.7 6 6v1293c0 3.3-2.7 6-6 6H81c-3.3 0-6-2.7-6-6z" stroke="#5e5e5e" stroke-width="3" fill="#fff"/><path d="M75 96c0-3.3 2.7-6 6-6h1598c3.3 0 6 2.7 6 6v48c0 3.3-2.7 6-6 6H81c-3.3 0-6-2.7-6-6z" stroke="#5e5e5e" stroke-width="3" fill="#bfbfbf"/><path d="M267 120c0-3.3 2.7-6 6-6h1394c3.3 0 6 2.7 6 6v12c0 3.3-2.7 6-6 6H273c-3.3 0-6-2.7-6-6z" stroke="#5e5e5e" stroke-width="3" fill="#fff"/><path d="M99 114l-12 12 12 12m-12-12h24M147 114l12 12-12 12m-12-12h24M207 126c-1.4-6.23-2.8-8.15-4.95-9.7-5.36-3.9-12.86-2.72-16.76 2.65-3.9 5.36-2.72 12.86 2.65 16.76 5.36 3.9 12.86 2.72 16.76-2.65" stroke="#5e5e5e" stroke-width="6" fill="none"/><path d="M210.12 114v12h-12z" stroke="#5e5e5e" stroke-width="1.5" fill="#5e5e5e"/><path d="M231 126l12-12 12 12h-2.4v12h-6v-12h-7.2v12h-6v-12z" stroke="#5e5e5e" fill="#5e5e5e"/><use xlink:href="#a" transform="matrix(1,0,0,1,95,90) translate(764.5061728395062 17.77777777777778)"/><use xlink:href="#b" transform="matrix(1,0,0,1,273,114) translate(0 17.77777777777778)"/><path d="M500 521.63c0-3.32 2.7-6 6-6h228c3.3 0 6 2.68 6 6v48c0 3.3-2.7 6-6 6H506c-3.3 0-6-2.7-6-6z" stroke="#000" stroke-width="3" fill="#fff"/><use xlink:href="#c" transform="matrix(1,0,0,1,505,520.6266666666667) translate(85.4320987654321 30.27777777777778)"/><path d="M500 601.63c0-3.32 2.7-6 6-6h228c3.3 0 6 2.68 6 6v48c0 3.3-2.7 6-6 6H506c-3.3 0-6-2.7-6-6z" stroke="#000" stroke-width="3" fill="#fff"/><use xlink:href="#d" transform="matrix(1,0,0,1,505,600.6266666666667) translate(79.87654320987654 30.27777777777778)"/><path d="M500 206.63c0-3.32 2.7-6 6-6h668c3.3 0 6 2.68 6 6v248c0 3.3-2.7 6-6 6H506c-3.3 0-6-2.7-6-6z" stroke="#000" stroke-width="3" fill="#fff"/><use xlink:href="#e" transform="matrix(1,0,0,1,505,205.62666666666667) translate(207.37654320987656 127.15277777777777)"/><use xlink:href="#f" transform="matrix(1,0,0,1,505,205.62666666666667) translate(276.3271604938272 127.15277777777777)"/><use xlink:href="#g" transform="matrix(1,0,0,1,505,205.62666666666667) translate(400.9567901234568 127.15277777777777)"/><path d="M500 681.63c0-3.32 2.7-6 6-6h668c3.3 0 6 2.68 6 6v108c0 3.3-2.7 6-6 6H506c-3.3 0-6-2.7-6-6z" stroke="#000" stroke-width="3" fill="#fff"/><use xlink:href="#h" transform="matrix(1,0,0,1,505,680.6266666666667) translate(0 17.77777777777778)"/><path d="M680 941.63c0-3.32 2.7-6 6-6h148c3.3 0 6 2.68 6 6v18.08c0 3.32-2.7 6-6 6H686c-3.3 0-6-2.68-6-6z" stroke="#000" stroke-width="3" fill="#fff"/><use xlink:href="#i" transform="matrix(1,0,0,1,685,940.6266666666666) translate(28.24574074074074 17.77777777777778)"/><path d="M500 941.63c0-3.32 2.7-6 6-6h148c3.3 0 6 2.68 6 6v18.08c0 3.32-2.7 6-6 6H506c-3.3 0-6-2.68-6-6z" stroke="#000" stroke-width="3" fill="#fff"/><use xlink:href="#j" transform="matrix(1,0,0,1,505,940.6266666666666) translate(27.628456790123455 17.77777777777778)"/><path d="M500 871.7c0-3.3 2.7-6 6-6h148c3.3 0 6 2.7 6 6v18.1c0 3.3-2.7 6-6 6H506c-3.3 0-6-2.7-6-6z" stroke="#000" stroke-width="3" fill="#fff"/><use xlink:href="#k" transform="matrix(1,0,0,1,505,870.7066666666668) translate(28.15314814814815 17.77777777777778)"/><use xlink:href="#l" transform="matrix(1,0,0,1,505,870.7066666666668) translate(75.005 17.77777777777778)"/><path d="M680 821.63c0-3.32 2.7-6 6-6h148c3.3 0 6 2.68 6 6v18.08c0 3.32-2.7 6-6 6H686c-3.3 0-6-2.68-6-6z" stroke="#000" stroke-width="3" fill="#fff"/><use xlink:href="#m" transform="matrix(1,0,0,1,685,820.6266666666667) translate(35.15932098765432 17.77777777777778)"/><path d="M500 821.63c0-3.32 2.7-6 6-6h148c3.3 0 6 2.68 6 6v18.08c0 3.32-2.7 6-6 6H506c-3.3 0-6-2.68-6-6z" stroke="#000" stroke-width="3" fill="#fff"/><use xlink:href="#n" transform="matrix(1,0,0,1,505,820.6266666666667) translate(33.060555555555545 17.77777777777778)"/><path d="M500 1011.55c0-3.32 2.7-6 6-6h148c3.3 0 6 2.68 6 6v108c0 3.3-2.7 6-6 6H506c-3.3 0-6-2.7-6-6z" stroke="#000" stroke-width="3" fill="#fff"/><use xlink:href="#o" transform="matrix(1,0,0,1,505,1010.5466666666666) translate(39.876543209876544 59.02777777777778)"/><path d="M500 206c0-3.3 2.7-6 6-6h148c3.3 0 6 2.7 6 6v19.33c0 3.32-2.7 6-6 6H506c-3.3 0-6-2.68-6-6z" stroke="#000" stroke-width="3" fill="#fff"/><use xlink:href="#p" transform="matrix(1,0,0,1,505,205) translate(25.71604938271605 15.597222222222223)"/><use xlink:href="#q" transform="matrix(1,0,0,1,505,205) translate(68.08641975308643 15.597222222222223)"/><path d="M660 415.63c0 44.18-35.82 80-80 80s-80-35.82-80-80c0-44.2 35.82-80 80-80s80 35.8 80 80z" stroke="#000" stroke-width="3" fill="#fff"/><use xlink:href="#e" transform="matrix(1,0,0,1,505,340.62666666666667) translate(9.691358024691368 78.71527777777777)"/><use xlink:href="#g" transform="matrix(1,0,0,1,505,340.62666666666667) translate(78.64197530864199 78.71527777777777)"/><path d="M900 1011.55c0-3.32 2.7-6 6-6h148c3.3 0 6 2.68 6 6v108c0 3.3-2.7 6-6 6H906c-3.3 0-6-2.7-6-6z" stroke="#000" stroke-width="3" fill="#fff"/><use xlink:href="#r" transform="matrix(1,0,0,1,905,1010.5466666666666) translate(44.81481481481482 59.02777777777778)"/><path d="M700 1011.55c0-3.32 2.7-6 6-6h148c3.3 0 6 2.68 6 6v108c0 3.3-2.7 6-6 6H706c-3.3 0-6-2.7-6-6z" stroke="#000" stroke-width="3" fill="#fff"/><use xlink:href="#s" transform="matrix(1,0,0,1,705,1010.5466666666666) translate(29.382716049382722 45.27777777777778)"/><use xlink:href="#t" transform="matrix(1,0,0,1,705,1010.5466666666666) translate(105.80246913580247 45.27777777777778)"/><use xlink:href="#u" transform="matrix(1,0,0,1,705,1010.5466666666666) translate(38.05555555555556 71.94444444444446)"/><path d="M1100 1011.55c0-3.32 2.7-6 6-6h148c3.3 0 6 2.68 6 6v108c0 3.3-2.7 6-6 6h-148c-3.3 0-6-2.7-6-6z" stroke="#000" stroke-width="3" fill="#fff"/><use xlink:href="#v" transform="matrix(1,0,0,1,1105,1010.5466666666666) translate(49.10493827160494 59.02777777777778)"/><path d="M500 1161.63c0-3.32 2.7-6 6-6h748c3.3 0 6 2.68 6 6v188c0 3.3-2.7 6-6 6H506c-3.3 0-6-2.7-6-6z" stroke="#000" stroke-width="3" fill="#fff"/><use xlink:href="#w" transform="matrix(1,0,0,1,505,1160.6266666666666) translate(314.0432098765432 100.90277777777777)"/><use xlink:href="#x" transform="matrix(1,0,0,1,505,1160.6266666666666) translate(385.4012345679012 100.90277777777777)"/><path d="M328 960c17.67 0 32 8.95 32 20s-14.33 20-32 20h-96c-17.67 0-32-8.95-32-20s14.33-20 32-20z" stroke="#000" stroke-width="3" fill="#d1bcd2"/><use xlink:href="#y" transform="matrix(1,0,0,1,205,965) translate(25.56055555555554 10.666666666666668)"/><use xlink:href="#z" transform="matrix(1,0,0,1,205,965) translate(76.48648148148148 10.666666666666668)"/><use xlink:href="#A" transform="matrix(1,0,0,1,205,965) translate(92.7087037037037 10.666666666666668)"/><use xlink:href="#B" transform="matrix(1,0,0,1,205,965) translate(13.764259259259253 26.666666666666668)"/><use xlink:href="#C" transform="matrix(1,0,0,1,205,965) translate(61.57907407407407 26.666666666666668)"/><use xlink:href="#D" transform="matrix(1,0,0,1,205,965) translate(88.91240740740741 26.666666666666668)"/><path d="M1488 940c17.67 0 32 9.4 32 21s-14.33 21-32 21h-96c-17.67 0-32-9.4-32-21s14.33-21 32-21z" stroke="#000" stroke-width="3" fill="#d1bcd2"/><use xlink:href="#y" transform="matrix(1,0,0,1,1365,945) translate(25.560555555555545 12.666666666666668)"/><use xlink:href="#z" transform="matrix(1,0,0,1,1365,945) translate(76.48648148148149 12.666666666666668)"/><use xlink:href="#A" transform="matrix(1,0,0,1,1365,945) translate(92.7087037037037 12.666666666666668)"/><use xlink:href="#B" transform="matrix(1,0,0,1,1365,945) translate(22.264259259259255 28.666666666666668)"/><use xlink:href="#E" transform="matrix(1,0,0,1,1365,945) translate(70.07907407407407 28.666666666666668)"/><use xlink:href="#F" transform="matrix(1,0,0,1,1365,945) translate(97.4124074074074 28.666666666666668)"/><path d="M1363 801.9c-1.65-2.87-1.65-7.52 0-10.38l34-58.62c1.65-2.87 5.7-5.2 9-5.2h68c3.3 0 7.35 2.33 9 5.2l34 58.62c1.65 2.86 1.65 7.5 0 10.38l-34 58.62c-1.65 2.86-5.7 5.2-9 5.2h-68c-3.3 0-7.35-2.34-9-5.2z" stroke="#000" stroke-width="3" fill="#ef8d22"/><use xlink:href="#G" transform="matrix(1,0,0,1,1365,732.7066666666668) translate(45.04203703703706 14.666666666666666)"/><use xlink:href="#H" transform="matrix(1,0,0,1,1365,732.7066666666668) translate(70.15314814814818 14.666666666666666)"/><use xlink:href="#I" transform="matrix(1,0,0,1,1365,732.7066666666668) translate(24.486481481481494 30.666666666666664)"/><use xlink:href="#J" transform="matrix(1,0,0,1,1365,732.7066666666668) translate(68.5975925925926 30.666666666666664)"/><use xlink:href="#K" transform="matrix(1,0,0,1,1365,732.7066666666668) translate(90.07907407407407 30.666666666666664)"/><use xlink:href="#L" transform="matrix(1,0,0,1,1365,732.7066666666668) translate(16.375370370370387 46.666666666666664)"/><use xlink:href="#M" transform="matrix(1,0,0,1,1365,732.7066666666668) translate(24.486481481481498 46.666666666666664)"/><use xlink:href="#N" transform="matrix(1,0,0,1,1365,732.7066666666668) translate(48.116111111111124 46.666666666666664)"/><use xlink:href="#O" transform="matrix(1,0,0,1,1365,732.7066666666668) translate(88.52351851851853 46.666666666666664)"/><use xlink:href="#L" transform="matrix(1,0,0,1,1365,732.7066666666668) translate(38.93092592592595 62.666666666666664)"/><use xlink:href="#P" transform="matrix(1,0,0,1,1365,732.7066666666668) translate(47.042037037037055 62.666666666666664)"/><use xlink:href="#Q" transform="matrix(1,0,0,1,1365,732.7066666666668) translate(87.44944444444445 62.666666666666664)"/><use xlink:href="#L" transform="matrix(1,0,0,1,1365,732.7066666666668) translate(38.912407407407414 78.66666666666667)"/><use xlink:href="#P" transform="matrix(1,0,0,1,1365,732.7066666666668) translate(47.02351851851852 78.66666666666667)"/><use xlink:href="#R" transform="matrix(1,0,0,1,1365,732.7066666666668) translate(87.43092592592592 78.66666666666667)"/><use xlink:href="#L" transform="matrix(1,0,0,1,1365,732.7066666666668) translate(38.412407407407414 94.66666666666667)"/><use xlink:href="#S" transform="matrix(1,0,0,1,1365,732.7066666666668) translate(46.52351851851853 94.66666666666667)"/><use xlink:href="#T" transform="matrix(1,0,0,1,1365,732.7066666666668) translate(57.634629629629636 94.66666666666667)"/><use xlink:href="#U" transform="matrix(1,0,0,1,1365,732.7066666666668) translate(73.85685185185186 94.66666666666667)"/><use xlink:href="#V" transform="matrix(1,0,0,1,1365,732.7066666666668) translate(25.116111111111135 110.66666666666667)"/><use xlink:href="#W" transform="matrix(1,0,0,1,1365,732.7066666666668) translate(101.26425925925929 110.66666666666667)"/><use xlink:href="#X" transform="matrix(1,0,0,1,1365,732.7066666666668) translate(45.80129629629615 126.66666666666667)"/><path d="M103 1252.2c-1.65-2.88-1.65-7.52 0-10.4l34-58.6c1.65-2.88 5.7-5.2 9-5.2h68c3.3 0 7.35 2.32 9 5.2l34 58.6c1.65 2.88 1.65 7.52 0 10.4l-34 58.6c-1.65 2.88-5.7 5.2-9 5.2h-68c-3.3 0-7.35-2.32-9-5.2z" stroke="#000" stroke-width="3" fill="#ef8d22"/><g><use xlink:href="#G" transform="matrix(1,0,0,1,105,1183) translate(45.04203703703704 42.666666666666664)"/><use xlink:href="#H" transform="matrix(1,0,0,1,105,1183) translate(70.15314814814815 42.666666666666664)"/><use xlink:href="#Y" transform="matrix(1,0,0,1,105,1183) translate(4.1716666666666615 58.666666666666664)"/><use xlink:href="#J" transform="matrix(1,0,0,1,105,1183) translate(88.91240740740741 58.666666666666664)"/><use xlink:href="#K" transform="matrix(1,0,0,1,105,1183) translate(110.3938888888889 58.666666666666664)"/><use xlink:href="#L" transform="matrix(1,0,0,1,105,1183) translate(12.560555555555576 74.66666666666667)"/><use xlink:href="#M" transform="matrix(1,0,0,1,105,1183) translate(20.671666666666688 74.66666666666667)"/><use xlink:href="#Z" transform="matrix(1,0,0,1,105,1183) translate(44.301296296296314 74.66666666666667)"/><use xlink:href="#aa" transform="matrix(1,0,0,1,105,1183) translate(77.5975925925926 74.66666666666667)"/><use xlink:href="#ab" transform="matrix(1,0,0,1,105,1183) translate(124.93092592592592 74.66666666666667)"/><use xlink:href="#L" transform="matrix(1,0,0,1,105,1183) translate(26.72722222222223 90.66666666666667)"/><use xlink:href="#ac" transform="matrix(1,0,0,1,105,1183) translate(34.838333333333345 90.66666666666667)"/><use xlink:href="#ad" transform="matrix(1,0,0,1,105,1183) translate(86.57907407407407 90.66666666666667)"/></g><path d="M303 1252.2c-1.65-2.88-1.65-7.52 0-10.4l34-58.6c1.65-2.88 5.7-5.2 9-5.2h68c3.3 0 7.35 2.32 9 5.2l34 58.6c1.65 2.88 1.65 7.52 0 10.4l-34 58.6c-1.65 2.88-5.7 5.2-9 5.2h-68c-3.3 0-7.35-2.32-9-5.2z" stroke="#000" stroke-width="3" fill="#ef8d22"/><g><use xlink:href="#G" transform="matrix(1,0,0,1,305,1183) translate(45.04203703703705 26.666666666666664)"/><use xlink:href="#H" transform="matrix(1,0,0,1,305,1183) translate(70.15314814814815 26.666666666666664)"/><use xlink:href="#ae" transform="matrix(1,0,0,1,305,1183) translate(17.338333333333345 42.666666666666664)"/><use xlink:href="#J" transform="matrix(1,0,0,1,305,1183) translate(75.74574074074074 42.666666666666664)"/><use xlink:href="#K" transform="matrix(1,0,0,1,305,1183) translate(97.22722222222222 42.666666666666664)"/><use xlink:href="#L" transform="matrix(1,0,0,1,305,1183) translate(26.597592592592598 58.666666666666664)"/><use xlink:href="#S" transform="matrix(1,0,0,1,305,1183) translate(34.70870370370371 58.666666666666664)"/><use xlink:href="#T" transform="matrix(1,0,0,1,305,1183) translate(45.81981481481482 58.666666666666664)"/><use xlink:href="#af" transform="matrix(1,0,0,1,305,1183) translate(62.04203703703704 58.666666666666664)"/><use xlink:href="#W" transform="matrix(1,0,0,1,305,1183) translate(99.78277777777778 58.666666666666664)"/><use xlink:href="#ag" transform="matrix(1,0,0,1,305,1183) translate(5.89388888888889 74.66666666666667)"/><use xlink:href="#ah" transform="matrix(1,0,0,1,305,1183) translate(68.005 74.66666666666667)"/><use xlink:href="#ai" transform="matrix(1,0,0,1,305,1183) translate(93.8198148148148 74.66666666666667)"/><use xlink:href="#aj" transform="matrix(1,0,0,1,305,1183) translate(55.8012962962963 90.66666666666667)"/><use xlink:href="#L" transform="matrix(1,0,0,1,305,1183) translate(26.727222222222235 106.66666666666667)"/><use xlink:href="#ac" transform="matrix(1,0,0,1,305,1183) translate(34.838333333333345 106.66666666666667)"/><use xlink:href="#ad" transform="matrix(1,0,0,1,305,1183) translate(86.57907407407407 106.66666666666667)"/></g><path d="M362.5 980h411.96c3.06 0 5.54 2.48 5.54 5.54" stroke="#000" stroke-width="2" fill="none"/><path d="M362.53 981h-1.1l.07-.94v-.23l-.07-.83h1.1z"/><path d="M780 1000.8l-4.64-14.26h9.28z" stroke="#000" stroke-width="2"/><path d="M1357.5 961H1186c-3.3 0-6 2.7-6 6v18.54" stroke="#000" stroke-width="2" fill="none"/><path d="M1358.5 960.94v.24l.07.82h-1.1v-2h1.1z"/><path d="M1180 1000.8l-4.64-14.26h9.28z" stroke="#000" stroke-width="2"/><path d="M1440 868.2v4.32m0 8.63v8.64m0 8.62v8.63m0 8.63V920" stroke="#5e5e5e" stroke-width="2" fill="none"/><path d="M1441 868.23h-2v-1.02h2z" fill="#5e5e5e"/><path d="M1440 935.26l-4.64-14.26h9.28z" stroke="#5e5e5e" stroke-width="2" fill="#5e5e5e"/><path d="M180 1175.5v-4.03m0-8.05v-8.05m0-8.04v-8.05m0-8.06v-8.05m0-8.05v-8.04m0-8.05V1095l.82-3.03 2.15-2.15 3.03-.82h3.67m7.33 0h7.33m7.34 0H219m7.33 0h7.34m7.33 0h7.33m7.34 0H263m7.33 0H274l3.03-.82 2.15-2.15.82-3.03v-3.94m0-7.87v-7.9m0-7.86v-7.88m0-7.87v-7.9m0-7.86V1020" stroke="#5e5e5e" stroke-width="2" fill="none"/><path d="M181 1176.5h-2v-1.03h2z" fill="#5e5e5e"/><path d="M280 1004.74l4.64 14.26h-9.28z" stroke="#5e5e5e" stroke-width="2" fill="#5e5e5e"/><path d="M362.5 980h211.96c3.06 0 5.54 2.48 5.54 5.54" stroke="#000" stroke-width="2" fill="none"/><path d="M362.53 981h-1.1l.07-.94v-.23l-.07-.83h1.1z"/><path d="M580 1000.8l-4.64-14.26h9.28z" stroke="#000" stroke-width="2"/><path d="M380 1175.5v-4.03m0-8.05v-8.05m0-8.04v-8.05m0-8.06v-8.05m0-8.05v-8.04m0-8.05V1095l-.82-3.03-2.15-2.15-3.03-.82h-3.67m-7.33 0h-7.33m-7.34 0H341m-7.33 0h-7.34m-7.33 0h-7.33m-7.34 0H297m-7.33 0H286l-3.03-.82-2.15-2.15-.82-3.03v-3.94m0-7.87v-7.9m0-7.86v-7.88m0-7.87v-7.9m0-7.86V1020" stroke="#5e5e5e" stroke-width="2" fill="none"/><path d="M381 1176.5h-2v-1.03h2z" fill="#5e5e5e"/><path d="M280 1004.74l4.64 14.26h-9.28z" stroke="#5e5e5e" stroke-width="2" fill="#5e5e5e"/><defs><path fill="#333" d="M127-220V0H93v-220H8v-28h204v28h-85" id="ak"/><path fill="#333" d="M24-231v-30h32v30H24zM24 0v-190h32V0H24" id="al"/><path fill="#333" d="M59-47c-2 24 18 29 38 22v24C64 9 27 4 27-40v-127H5v-23h24l9-43h21v43h35v23H59v120" id="am"/><path fill="#333" d="M24 0v-261h32V0H24" id="an"/><path fill="#333" d="M100-194c63 0 86 42 84 106H49c0 40 14 67 53 68 26 1 43-12 49-29l28 8c-11 28-37 45-77 45C44 4 14-33 15-96c1-61 26-98 85-98zm52 81c6-60-76-77-97-28-3 7-6 17-6 28h103" id="ao"/><g id="a"><use transform="matrix(0.06172839506172839,0,0,0.06172839506172839,0,0)" xlink:href="#ak"/><use transform="matrix(0.06172839506172839,0,0,0.06172839506172839,12.716049382716047,0)" xlink:href="#al"/><use transform="matrix(0.06172839506172839,0,0,0.06172839506172839,17.592592592592588,0)" xlink:href="#am"/><use transform="matrix(0.06172839506172839,0,0,0.06172839506172839,23.765432098765427,0)" xlink:href="#an"/><use transform="matrix(0.06172839506172839,0,0,0.06172839506172839,28.641975308641968,0)" xlink:href="#ao"/></g><path fill="#333" d="M106-169C34-169 62-67 57 0H25v-261h32l-1 103c12-21 28-36 61-36 89 0 53 116 60 194h-32v-121c2-32-8-49-39-48" id="ap"/><path fill="#333" d="M115-194c55 1 70 41 70 98S169 2 115 4C84 4 66-9 55-30l1 105H24l-1-265h31l2 30c10-21 28-34 59-34zm-8 174c40 0 45-34 45-75s-6-73-45-74c-42 0-51 32-51 76 0 43 10 73 51 73" id="aq"/><path fill="#333" d="M135-143c-3-34-86-38-87 0 15 53 115 12 119 90S17 21 10-45l28-5c4 36 97 45 98 0-10-56-113-15-118-90-4-57 82-63 122-42 12 7 21 19 24 35" id="ar"/><path fill="#333" d="M33-154v-36h34v36H33zM33 0v-36h34V0H33" id="as"/><path fill="#333" d="M0 4l72-265h28L28 4H0" id="at"/><path fill="#333" d="M206 0h-36l-40-164L89 0H53L-1-190h32L70-26l43-164h34l41 164 42-164h31" id="au"/><path fill="#333" d="M114-163C36-179 61-72 57 0H25l-1-190h30c1 12-1 29 2 39 6-27 23-49 58-41v29" id="av"/><path fill="#333" d="M16-82v-28h88v28H16" id="aw"/><path fill="#333" d="M96-169c-40 0-48 33-48 73s9 75 48 75c24 0 41-14 43-38l32 2c-6 37-31 61-74 61-59 0-76-41-82-99-10-93 101-131 147-64 4 7 5 14 7 22l-32 3c-4-21-16-35-41-35" id="ax"/><path fill="#333" d="M100-194c62-1 85 37 85 99 1 63-27 99-86 99S16-35 15-95c0-66 28-99 85-99zM99-20c44 1 53-31 53-75 0-43-8-75-51-75s-53 32-53 75 10 74 51 75" id="ay"/><path fill="#333" d="M117-194c89-4 53 116 60 194h-32v-121c0-31-8-49-39-48C34-167 62-67 57 0H25l-1-190h30c1 10-1 24 2 32 11-22 29-35 61-36" id="az"/><path fill="#333" d="M85-194c31 0 48 13 60 33l-1-100h32l1 261h-30c-2-10 0-23-3-31C134-8 116 4 85 4 32 4 16-35 15-94c0-66 23-100 70-100zm9 24c-40 0-46 34-46 75 0 40 6 74 45 74 42 0 51-32 51-76 0-42-9-74-50-73" id="aA"/><path fill="#333" d="M210-169c-67 3-38 105-44 169h-31v-121c0-29-5-50-35-48C34-165 62-65 56 0H25l-1-190h30c1 10-1 24 2 32 10-44 99-50 107 0 11-21 27-35 58-36 85-2 47 119 55 194h-31v-121c0-29-5-49-35-48" id="aB"/><path fill="#333" d="M33 0v-38h34V0H33" id="aC"/><g id="b"><use transform="matrix(0.06172839506172839,0,0,0.06172839506172839,0,0)" xlink:href="#ap"/><use transform="matrix(0.06172839506172839,0,0,0.06172839506172839,12.345679012345679,0)" xlink:href="#am"/><use transform="matrix(0.06172839506172839,0,0,0.06172839506172839,18.51851851851852,0)" xlink:href="#am"/><use transform="matrix(0.06172839506172839,0,0,0.06172839506172839,24.691358024691358,0)" xlink:href="#aq"/><use transform="matrix(0.06172839506172839,0,0,0.06172839506172839,37.03703703703704,0)" xlink:href="#ar"/><use transform="matrix(0.06172839506172839,0,0,0.06172839506172839,48.14814814814815,0)" xlink:href="#as"/><use transform="matrix(0.06172839506172839,0,0,0.06172839506172839,54.320987654320994,0)" xlink:href="#at"/><use transform="matrix(0.06172839506172839,0,0,0.06172839506172839,60.49382716049384,0)" xlink:href="#at"/><use transform="matrix(0.06172839506172839,0,0,0.06172839506172839,66.66666666666667,0)" xlink:href="#am"/><use transform="matrix(0.06172839506172839,0,0,0.06172839506172839,72.8395061728395,0)" xlink:href="#au"/><use transform="matrix(0.06172839506172839,0,0,0.06172839506172839,88.82716049382717,0)" xlink:href="#al"/><use transform="matrix(0.06172839506172839,0,0,0.06172839506172839,93.70370370370371,0)" xlink:href="#am"/><use transform="matrix(0.06172839506172839,0,0,0.06172839506172839,99.87654320987654,0)" xlink:href="#am"/><use transform="matrix(0.06172839506172839,0,0,0.06172839506172839,106.04938271604938,0)" xlink:href="#ao"/><use transform="matrix(0.06172839506172839,0,0,0.06172839506172839,118.39506172839506,0)" xlink:href="#av"/><use transform="matrix(0.06172839506172839,0,0,0.06172839506172839,125.74074074074075,0)" xlink:href="#aw"/><use transform="matrix(0.06172839506172839,0,0,0.06172839506172839,133.08641975308643,0)" xlink:href="#ax"/><use transform="matrix(0.06172839506172839,0,0,0.06172839506172839,144.19753086419755,0)" xlink:href="#an"/><use transform="matrix(0.06172839506172839,0,0,0.06172839506172839,149.07407407407408,0)" xlink:href="#ay"/><use transform="matrix(0.06172839506172839,0,0,0.06172839506172839,161.41975308641975,0)" xlink:href="#az"/><use transform="matrix(0.06172839506172839,0,0,0.06172839506172839,173.76543209876542,0)" xlink:href="#ao"/><use transform="matrix(0.06172839506172839,0,0,0.06172839506172839,186.1111111111111,0)" xlink:href="#aw"/><use transform="matrix(0.06172839506172839,0,0,0.06172839506172839,193.45679012345676,0)" xlink:href="#aA"/><use transform="matrix(0.06172839506172839,0,0,0.06172839506172839,205.80246913580243,0)" xlink:href="#ao"/><use transform="matrix(0.06172839506172839,0,0,0.06172839506172839,218.1481481481481,0)" xlink:href="#aB"/><use transform="matrix(0.06172839506172839,0,0,0.06172839506172839,236.60493827160488,0)" xlink:href="#ay"/><use transform="matrix(0.06172839506172839,0,0,0.06172839506172839,248.95061728395055,0)" xlink:href="#aC"/><use transform="matrix(0.06172839506172839,0,0,0.06172839506172839,255.12345679012338,0)" xlink:href="#ax"/><use transform="matrix(0.06172839506172839,0,0,0.06172839506172839,266.23456790123447,0)" xlink:href="#ay"/><use transform="matrix(0.06172839506172839,0,0,0.06172839506172839,278.58024691358014,0)" xlink:href="#aB"/></g><path d="M190 0L58-211 59 0H30v-248h39L202-35l-2-213h31V0h-41" id="aD"/><path d="M141-36C126-15 110 5 73 4 37 3 15-17 15-53c-1-64 63-63 125-63 3-35-9-54-41-54-24 1-41 7-42 31l-33-3c5-37 33-52 76-52 45 0 72 20 72 64v82c-1 20 7 32 28 27v20c-31 9-61-2-59-35zM48-53c0 20 12 33 32 33 41-3 63-29 60-74-43 2-92-5-92 41" id="aE"/><path d="M210-169c-67 3-38 105-44 169h-31v-121c0-29-5-50-35-48C34-165 62-65 56 0H25l-1-190h30c1 10-1 24 2 32 10-44 99-50 107 0 11-21 27-35 58-36 85-2 47 119 55 194h-31v-121c0-29-5-49-35-48" id="aF"/><path d="M100-194c63 0 86 42 84 106H49c0 40 14 67 53 68 26 1 43-12 49-29l28 8c-11 28-37 45-77 45C44 4 14-33 15-96c1-61 26-98 85-98zm52 81c6-60-76-77-97-28-3 7-6 17-6 28h103" id="aG"/><g id="c"><use transform="matrix(0.06172839506172839,0,0,0.06172839506172839,0,0)" xlink:href="#aD"/><use transform="matrix(0.06172839506172839,0,0,0.06172839506172839,15.987654320987653,0)" xlink:href="#aE"/><use transform="matrix(0.06172839506172839,0,0,0.06172839506172839,28.333333333333332,0)" xlink:href="#aF"/><use transform="matrix(0.06172839506172839,0,0,0.06172839506172839,46.79012345679012,0)" xlink:href="#aG"/></g><path d="M197 0v-115H63V0H30v-248h33v105h134v-105h34V0h-34" id="aH"/><path d="M117-194c89-4 53 116 60 194h-32v-121c0-31-8-49-39-48C34-167 62-67 57 0H25l-1-190h30c1 10-1 24 2 32 11-22 29-35 61-36" id="aI"/><path d="M85-194c31 0 48 13 60 33l-1-100h32l1 261h-30c-2-10 0-23-3-31C134-8 116 4 85 4 32 4 16-35 15-94c0-66 23-100 70-100zm9 24c-40 0-46 34-46 75 0 40 6 74 45 74 42 0 51-32 51-76 0-42-9-74-50-73" id="aJ"/><path d="M24 0v-261h32V0H24" id="aK"/><g id="d"><use transform="matrix(0.06172839506172839,0,0,0.06172839506172839,0,0)" xlink:href="#aH"/><use transform="matrix(0.06172839506172839,0,0,0.06172839506172839,15.987654320987653,0)" xlink:href="#aE"/><use transform="matrix(0.06172839506172839,0,0,0.06172839506172839,28.333333333333332,0)" xlink:href="#aI"/><use transform="matrix(0.06172839506172839,0,0,0.06172839506172839,40.67901234567901,0)" xlink:href="#aJ"/><use transform="matrix(0.06172839506172839,0,0,0.06172839506172839,53.02469135802469,0)" xlink:href="#aK"/><use transform="matrix(0.06172839506172839,0,0,0.06172839506172839,57.901234567901234,0)" xlink:href="#aG"/></g><path d="M30-248c87 1 191-15 191 75 0 78-77 80-158 76V0H30v-248zm33 125c57 0 124 11 124-50 0-59-68-47-124-48v98" id="aL"/><path d="M114-163C36-179 61-72 57 0H25l-1-190h30c1 12-1 29 2 39 6-27 23-49 58-41v29" id="aM"/><path d="M100-194c62-1 85 37 85 99 1 63-27 99-86 99S16-35 15-95c0-66 28-99 85-99zM99-20c44 1 53-31 53-75 0-43-8-75-51-75s-53 32-53 75 10 74 51 75" id="aN"/><path d="M101-234c-31-9-42 10-38 44h38v23H63V0H32v-167H5v-23h27c-7-52 17-82 69-68v24" id="aO"/><path d="M24-231v-30h32v30H24zM24 0v-190h32V0H24" id="aP"/><g id="e"><use transform="matrix(0.06172839506172839,0,0,0.06172839506172839,0,0)" xlink:href="#aL"/><use transform="matrix(0.06172839506172839,0,0,0.06172839506172839,14.814814814814813,0)" xlink:href="#aM"/><use transform="matrix(0.06172839506172839,0,0,0.06172839506172839,22.160493827160494,0)" xlink:href="#aN"/><use transform="matrix(0.06172839506172839,0,0,0.06172839506172839,34.50617283950617,0)" xlink:href="#aO"/><use transform="matrix(0.06172839506172839,0,0,0.06172839506172839,40.67901234567901,0)" xlink:href="#aP"/><use transform="matrix(0.06172839506172839,0,0,0.06172839506172839,45.55555555555556,0)" xlink:href="#aK"/><use transform="matrix(0.06172839506172839,0,0,0.06172839506172839,50.4320987654321,0)" xlink:href="#aG"/></g><path d="M160-131c35 5 61 23 61 61C221 17 115-2 30 0v-248c76 3 177-17 177 60 0 33-19 50-47 57zm-97-11c50-1 110 9 110-42 0-47-63-36-110-37v79zm0 115c55-2 124 14 124-45 0-56-70-42-124-44v89" id="aQ"/><path d="M96-169c-40 0-48 33-48 73s9 75 48 75c24 0 41-14 43-38l32 2c-6 37-31 61-74 61-59 0-76-41-82-99-10-93 101-131 147-64 4 7 5 14 7 22l-32 3c-4-21-16-35-41-35" id="aR"/><path d="M143 0L79-87 56-68V0H24v-261h32v163l83-92h37l-77 82L181 0h-38" id="aS"/><path d="M177-190C167-65 218 103 67 71c-23-6-38-20-44-43l32-5c15 47 100 32 89-28v-30C133-14 115 1 83 1 29 1 15-40 15-95c0-56 16-97 71-98 29-1 48 16 59 35 1-10 0-23 2-32h30zM94-22c36 0 50-32 50-73 0-42-14-75-50-75-39 0-46 34-46 75s6 73 46 73" id="aT"/><path d="M84 4C-5 8 30-112 23-190h32v120c0 31 7 50 39 49 72-2 45-101 50-169h31l1 190h-30c-1-10 1-25-2-33-11 22-28 36-60 37" id="aU"/><g id="f"><use transform="matrix(0.06172839506172839,0,0,0.06172839506172839,0,0)" xlink:href="#aQ"/><use transform="matrix(0.06172839506172839,0,0,0.06172839506172839,14.814814814814813,0)" xlink:href="#aE"/><use transform="matrix(0.06172839506172839,0,0,0.06172839506172839,27.160493827160494,0)" xlink:href="#aR"/><use transform="matrix(0.06172839506172839,0,0,0.06172839506172839,38.27160493827161,0)" xlink:href="#aS"/><use transform="matrix(0.06172839506172839,0,0,0.06172839506172839,49.38271604938272,0)" xlink:href="#aT"/><use transform="matrix(0.06172839506172839,0,0,0.06172839506172839,61.7283950617284,0)" xlink:href="#aM"/><use transform="matrix(0.06172839506172839,0,0,0.06172839506172839,69.07407407407408,0)" xlink:href="#aN"/><use transform="matrix(0.06172839506172839,0,0,0.06172839506172839,81.41975308641976,0)" xlink:href="#aU"/><use transform="matrix(0.06172839506172839,0,0,0.06172839506172839,93.76543209876544,0)" xlink:href="#aI"/><use transform="matrix(0.06172839506172839,0,0,0.06172839506172839,106.11111111111113,0)" xlink:href="#aJ"/></g><path d="M33 0v-248h34V0H33" id="aV"/><g id="g"><use transform="matrix(0.06172839506172839,0,0,0.06172839506172839,0,0)" xlink:href="#aV"/><use transform="matrix(0.06172839506172839,0,0,0.06172839506172839,6.172839506172839,0)" xlink:href="#aF"/><use transform="matrix(0.06172839506172839,0,0,0.06172839506172839,24.629629629629626,0)" xlink:href="#aE"/><use transform="matrix(0.06172839506172839,0,0,0.06172839506172839,36.9753086419753,0)" xlink:href="#aT"/><use transform="matrix(0.06172839506172839,0,0,0.06172839506172839,49.32098765432098,0)" xlink:href="#aG"/></g><path d="M30-248c118-7 216 8 213 122C240-48 200 0 122 0H30v-248zM63-27c89 8 146-16 146-99s-60-101-146-95v194" id="aW"/><path d="M135-143c-3-34-86-38-87 0 15 53 115 12 119 90S17 21 10-45l28-5c4 36 97 45 98 0-10-56-113-15-118-90-4-57 82-63 122-42 12 7 21 19 24 35" id="aX"/><path d="M115-194c55 1 70 41 70 98S169 2 115 4C84 4 66-9 55-30l1 105H24l-1-265h31l2 30c10-21 28-34 59-34zm-8 174c40 0 45-34 45-75s-6-73-45-74c-42 0-51 32-51 76 0 43 10 73 51 73" id="aY"/><path d="M59-47c-2 24 18 29 38 22v24C64 9 27 4 27-40v-127H5v-23h24l9-43h21v43h35v23H59v120" id="aZ"/><g id="h"><use transform="matrix(0.06172839506172839,0,0,0.06172839506172839,0,0)" xlink:href="#aW"/><use transform="matrix(0.06172839506172839,0,0,0.06172839506172839,15.987654320987653,0)" xlink:href="#aG"/><use transform="matrix(0.06172839506172839,0,0,0.06172839506172839,28.333333333333332,0)" xlink:href="#aX"/><use transform="matrix(0.06172839506172839,0,0,0.06172839506172839,39.44444444444444,0)" xlink:href="#aR"/><use transform="matrix(0.06172839506172839,0,0,0.06172839506172839,50.55555555555556,0)" xlink:href="#aM"/><use transform="matrix(0.06172839506172839,0,0,0.06172839506172839,57.901234567901234,0)" xlink:href="#aP"/><use transform="matrix(0.06172839506172839,0,0,0.06172839506172839,62.77777777777778,0)" xlink:href="#aY"/><use transform="matrix(0.06172839506172839,0,0,0.06172839506172839,75.12345679012346,0)" xlink:href="#aZ"/><use transform="matrix(0.06172839506172839,0,0,0.06172839506172839,81.29629629629629,0)" xlink:href="#aP"/><use transform="matrix(0.06172839506172839,0,0,0.06172839506172839,86.17283950617283,0)" xlink:href="#aN"/><use transform="matrix(0.06172839506172839,0,0,0.06172839506172839,98.51851851851852,0)" xlink:href="#aI"/></g><path d="M63-220v92h138v28H63V0H30v-248h175v28H63" id="ba"/><path d="M206 0h-36l-40-164L89 0H53L-1-190h32L70-26l43-164h34l41 164 42-164h31" id="bb"/><g id="i"><use transform="matrix(0.06172839506172839,0,0,0.06172839506172839,0,0)" xlink:href="#ba"/><use transform="matrix(0.06172839506172839,0,0,0.06172839506172839,13.518518518518517,0)" xlink:href="#aN"/><use transform="matrix(0.06172839506172839,0,0,0.06172839506172839,25.864197530864196,0)" xlink:href="#aK"/><use transform="matrix(0.06172839506172839,0,0,0.06172839506172839,30.74074074074074,0)" xlink:href="#aK"/><use transform="matrix(0.06172839506172839,0,0,0.06172839506172839,35.617283950617285,0)" xlink:href="#aN"/><use transform="matrix(0.06172839506172839,0,0,0.06172839506172839,47.96296296296296,0)" xlink:href="#bb"/><use transform="matrix(0.06172839506172839,0,0,0.06172839506172839,63.95061728395061,0)" xlink:href="#aP"/><use transform="matrix(0.06172839506172839,0,0,0.06172839506172839,68.82716049382715,0)" xlink:href="#aI"/><use transform="matrix(0.06172839506172839,0,0,0.06172839506172839,81.17283950617283,0)" xlink:href="#aT"/></g><g id="j"><use transform="matrix(0.06172839506172839,0,0,0.06172839506172839,0,0)" xlink:href="#ba"/><use transform="matrix(0.06172839506172839,0,0,0.06172839506172839,13.518518518518517,0)" xlink:href="#aN"/><use transform="matrix(0.06172839506172839,0,0,0.06172839506172839,25.864197530864196,0)" xlink:href="#aK"/><use transform="matrix(0.06172839506172839,0,0,0.06172839506172839,30.74074074074074,0)" xlink:href="#aK"/><use transform="matrix(0.06172839506172839,0,0,0.06172839506172839,35.617283950617285,0)" xlink:href="#aN"/><use transform="matrix(0.06172839506172839,0,0,0.06172839506172839,47.96296296296296,0)" xlink:href="#bb"/><use transform="matrix(0.06172839506172839,0,0,0.06172839506172839,63.95061728395061,0)" xlink:href="#aG"/><use transform="matrix(0.06172839506172839,0,0,0.06172839506172839,76.29629629629629,0)" xlink:href="#aM"/><use transform="matrix(0.06172839506172839,0,0,0.06172839506172839,83.64197530864197,0)" xlink:href="#aX"/></g><path d="M153-248C145-148 188 4 80 4 36 3 13-21 6-62l32-5c4 25 16 42 43 43 27 0 39-20 39-49v-147H72v-28h81" id="bc"/><g id="k"><use transform="matrix(0.06172839506172839,0,0,0.06172839506172839,0,0)" xlink:href="#bc"/><use transform="matrix(0.06172839506172839,0,0,0.06172839506172839,11.11111111111111,0)" xlink:href="#aN"/><use transform="matrix(0.06172839506172839,0,0,0.06172839506172839,23.45679012345679,0)" xlink:href="#aP"/><use transform="matrix(0.06172839506172839,0,0,0.06172839506172839,28.333333333333336,0)" xlink:href="#aI"/></g><g id="l"><use transform="matrix(0.06172839506172839,0,0,0.06172839506172839,0,0)" xlink:href="#aW"/><use transform="matrix(0.06172839506172839,0,0,0.06172839506172839,15.987654320987653,0)" xlink:href="#aE"/><use transform="matrix(0.06172839506172839,0,0,0.06172839506172839,28.333333333333332,0)" xlink:href="#aZ"/><use transform="matrix(0.06172839506172839,0,0,0.06172839506172839,34.50617283950617,0)" xlink:href="#aG"/></g><path d="M266 0h-40l-56-210L115 0H75L2-248h35L96-30l15-64 43-154h32l59 218 59-218h35" id="bd"/><path d="M115-194c53 0 69 39 70 98 0 66-23 100-70 100C84 3 66-7 56-30L54 0H23l1-261h32v101c10-23 28-34 59-34zm-8 174c40 0 45-34 45-75 0-40-5-75-45-74-42 0-51 32-51 76 0 43 10 73 51 73" id="be"/><g id="m"><use transform="matrix(0.06172839506172839,0,0,0.06172839506172839,0,0)" xlink:href="#bd"/><use transform="matrix(0.06172839506172839,0,0,0.06172839506172839,20.493827160493826,0)" xlink:href="#aG"/><use transform="matrix(0.06172839506172839,0,0,0.06172839506172839,32.839506172839506,0)" xlink:href="#be"/><use transform="matrix(0.06172839506172839,0,0,0.06172839506172839,45.18518518518518,0)" xlink:href="#aX"/><use transform="matrix(0.06172839506172839,0,0,0.06172839506172839,56.29629629629629,0)" xlink:href="#aP"/><use transform="matrix(0.06172839506172839,0,0,0.06172839506172839,61.172839506172835,0)" xlink:href="#aZ"/><use transform="matrix(0.06172839506172839,0,0,0.06172839506172839,67.34567901234567,0)" xlink:href="#aG"/></g><path d="M30 0v-248h33v221h125V0H30" id="bf"/><g id="n"><use transform="matrix(0.06172839506172839,0,0,0.06172839506172839,0,0)" xlink:href="#bf"/><use transform="matrix(0.06172839506172839,0,0,0.06172839506172839,12.345679012345679,0)" xlink:href="#aN"/><use transform="matrix(0.06172839506172839,0,0,0.06172839506172839,24.691358024691358,0)" xlink:href="#aR"/><use transform="matrix(0.06172839506172839,0,0,0.06172839506172839,35.80246913580247,0)" xlink:href="#aE"/><use transform="matrix(0.06172839506172839,0,0,0.06172839506172839,48.148148148148145,0)" xlink:href="#aZ"/><use transform="matrix(0.06172839506172839,0,0,0.06172839506172839,54.32098765432099,0)" xlink:href="#aP"/><use transform="matrix(0.06172839506172839,0,0,0.06172839506172839,59.19753086419753,0)" xlink:href="#aN"/><use transform="matrix(0.06172839506172839,0,0,0.06172839506172839,71.54320987654322,0)" xlink:href="#aI"/></g><path d="M127-220V0H93v-220H8v-28h204v28h-85" id="bg"/><g id="o"><use transform="matrix(0.06172839506172839,0,0,0.06172839506172839,0,0)" xlink:href="#bg"/><use transform="matrix(0.06172839506172839,0,0,0.06172839506172839,12.28395061728395,0)" xlink:href="#bb"/><use transform="matrix(0.06172839506172839,0,0,0.06172839506172839,28.2716049382716,0)" xlink:href="#aG"/><use transform="matrix(0.06172839506172839,0,0,0.06172839506172839,40.61728395061728,0)" xlink:href="#aG"/><use transform="matrix(0.06172839506172839,0,0,0.06172839506172839,52.962962962962955,0)" xlink:href="#aZ"/><use transform="matrix(0.06172839506172839,0,0,0.06172839506172839,59.1358024691358,0)" xlink:href="#aX"/></g><g id="p"><use transform="matrix(0.04938271604938272,0,0,0.04938271604938272,0,0)" xlink:href="#bg"/><use transform="matrix(0.04938271604938272,0,0,0.04938271604938272,8.839506172839506,0)" xlink:href="#aN"/><use transform="matrix(0.04938271604938272,0,0,0.04938271604938272,18.71604938271605,0)" xlink:href="#aZ"/><use transform="matrix(0.04938271604938272,0,0,0.04938271604938272,23.654320987654323,0)" xlink:href="#aE"/><use transform="matrix(0.04938271604938272,0,0,0.04938271604938272,33.53086419753087,0)" xlink:href="#aK"/></g><g id="q"><use transform="matrix(0.04938271604938272,0,0,0.04938271604938272,0,0)" xlink:href="#bg"/><use transform="matrix(0.04938271604938272,0,0,0.04938271604938272,9.82716049382716,0)" xlink:href="#bb"/><use transform="matrix(0.04938271604938272,0,0,0.04938271604938272,22.617283950617285,0)" xlink:href="#aG"/><use transform="matrix(0.04938271604938272,0,0,0.04938271604938272,32.49382716049383,0)" xlink:href="#aG"/><use transform="matrix(0.04938271604938272,0,0,0.04938271604938272,42.370370370370374,0)" xlink:href="#aZ"/><use transform="matrix(0.04938271604938272,0,0,0.04938271604938272,47.308641975308646,0)" xlink:href="#aX"/></g><path d="M240 0l2-218c-23 76-54 145-80 218h-23L58-218 59 0H30v-248h44l77 211c21-75 51-140 76-211h43V0h-30" id="bh"/><g id="r"><use transform="matrix(0.06172839506172839,0,0,0.06172839506172839,0,0)" xlink:href="#bh"/><use transform="matrix(0.06172839506172839,0,0,0.06172839506172839,18.456790123456788,0)" xlink:href="#aG"/><use transform="matrix(0.06172839506172839,0,0,0.06172839506172839,30.80246913580247,0)" xlink:href="#aJ"/><use transform="matrix(0.06172839506172839,0,0,0.06172839506172839,43.148148148148145,0)" xlink:href="#aP"/><use transform="matrix(0.06172839506172839,0,0,0.06172839506172839,48.02469135802469,0)" xlink:href="#aE"/></g><g id="s"><use transform="matrix(0.06172839506172839,0,0,0.06172839506172839,0,0)" xlink:href="#bg"/><use transform="matrix(0.06172839506172839,0,0,0.06172839506172839,12.28395061728395,0)" xlink:href="#bb"/><use transform="matrix(0.06172839506172839,0,0,0.06172839506172839,28.2716049382716,0)" xlink:href="#aG"/><use transform="matrix(0.06172839506172839,0,0,0.06172839506172839,40.61728395061728,0)" xlink:href="#aG"/><use transform="matrix(0.06172839506172839,0,0,0.06172839506172839,52.962962962962955,0)" xlink:href="#aZ"/><use transform="matrix(0.06172839506172839,0,0,0.06172839506172839,59.1358024691358,0)" xlink:href="#aX"/></g><path d="M234-2c-28 10-62 0-77-18C117 19 8 12 13-65c3-43 29-61 60-76-25-40-17-114 47-108 35 3 59 15 59 50 0 44-40 53-71 69 14 26 32 50 51 72 14-21 24-43 30-72l26 8c-9 33-21 57-38 82 13 13 33 22 57 15v23zM97-151c25-10 52-18 56-48-1-18-13-29-33-29-42 0-39 50-23 77zM42-66c-3 51 71 58 98 28-20-24-41-51-56-80-23 10-40 24-42 52" id="bi"/><use transform="matrix(0.06172839506172839,0,0,0.06172839506172839,0,0)" xlink:href="#bi" id="t"/><path d="M233-177c-1 41-23 64-60 70L243 0h-38l-65-103H63V0H30v-248c88 3 205-21 203 71zM63-129c60-2 137 13 137-47 0-61-80-42-137-45v92" id="bj"/><g id="u"><use transform="matrix(0.06172839506172839,0,0,0.06172839506172839,0,0)" xlink:href="#bj"/><use transform="matrix(0.06172839506172839,0,0,0.06172839506172839,15.987654320987653,0)" xlink:href="#aG"/><use transform="matrix(0.06172839506172839,0,0,0.06172839506172839,28.333333333333332,0)" xlink:href="#aY"/><use transform="matrix(0.06172839506172839,0,0,0.06172839506172839,40.67901234567901,0)" xlink:href="#aK"/><use transform="matrix(0.06172839506172839,0,0,0.06172839506172839,45.55555555555556,0)" xlink:href="#aP"/><use transform="matrix(0.06172839506172839,0,0,0.06172839506172839,50.4320987654321,0)" xlink:href="#aG"/><use transform="matrix(0.06172839506172839,0,0,0.06172839506172839,62.77777777777778,0)" xlink:href="#aX"/></g><g id="v"><use transform="matrix(0.06172839506172839,0,0,0.06172839506172839,0,0)" xlink:href="#bf"/><use transform="matrix(0.06172839506172839,0,0,0.06172839506172839,12.345679012345679,0)" xlink:href="#aP"/><use transform="matrix(0.06172839506172839,0,0,0.06172839506172839,17.22222222222222,0)" xlink:href="#aS"/><use transform="matrix(0.06172839506172839,0,0,0.06172839506172839,28.333333333333332,0)" xlink:href="#aG"/><use transform="matrix(0.06172839506172839,0,0,0.06172839506172839,40.67901234567901,0)" xlink:href="#aX"/></g><g id="w"><use transform="matrix(0.06172839506172839,0,0,0.06172839506172839,0,0)" xlink:href="#bg"/><use transform="matrix(0.06172839506172839,0,0,0.06172839506172839,12.28395061728395,0)" xlink:href="#bb"/><use transform="matrix(0.06172839506172839,0,0,0.06172839506172839,28.2716049382716,0)" xlink:href="#aP"/><use transform="matrix(0.06172839506172839,0,0,0.06172839506172839,33.148148148148145,0)" xlink:href="#aZ"/><use transform="matrix(0.06172839506172839,0,0,0.06172839506172839,39.32098765432099,0)" xlink:href="#aZ"/><use transform="matrix(0.06172839506172839,0,0,0.06172839506172839,45.49382716049383,0)" xlink:href="#aG"/><use transform="matrix(0.06172839506172839,0,0,0.06172839506172839,57.839506172839506,0)" xlink:href="#aM"/></g><g id="x"><use transform="matrix(0.06172839506172839,0,0,0.06172839506172839,0,0)" xlink:href="#ba"/><use transform="matrix(0.06172839506172839,0,0,0.06172839506172839,13.518518518518517,0)" xlink:href="#aG"/><use transform="matrix(0.06172839506172839,0,0,0.06172839506172839,25.864197530864196,0)" xlink:href="#aG"/><use transform="matrix(0.06172839506172839,0,0,0.06172839506172839,38.20987654320987,0)" xlink:href="#aJ"/></g><path d="M230 0l2-204L168 0h-37L68-204 70 0H24v-248h70l56 185 57-185h69V0h-46" id="bk"/><path d="M185-48c-13 30-37 53-82 52C43 2 14-33 14-96s30-98 90-98c62 0 83 45 84 108H66c0 31 8 55 39 56 18 0 30-7 34-22zm-45-69c5-46-57-63-70-21-2 6-4 13-4 21h74" id="bl"/><path d="M115-3C79 11 28 4 28-45v-112H4v-33h27l15-45h31v45h36v33H77v99c-1 23 16 31 38 25v30" id="bm"/><path d="M114-157C55-157 80-60 75 0H25v-261h50l-1 109c12-26 28-41 61-42 86-1 58 113 63 194h-50c-7-57 23-157-34-157" id="bn"/><path d="M110-194c64 0 96 36 96 99 0 64-35 99-97 99-61 0-95-36-95-99 0-62 34-99 96-99zm-1 164c35 0 45-28 45-65 0-40-10-65-43-65-34 0-45 26-45 65 0 36 10 65 43 65" id="bo"/><path d="M88-194c31-1 46 15 58 34l-1-101h50l1 261h-48c-2-10 0-23-3-31C134-8 116 4 84 4 32 4 16-41 15-95c0-56 19-97 73-99zm17 164c33 0 40-30 41-66 1-37-9-64-41-64s-38 30-39 65c0 43 13 65 39 65" id="bp"/><g id="y"><use transform="matrix(0.03703703703703704,0,0,0.03703703703703704,0,0)" xlink:href="#bk"/><use transform="matrix(0.03703703703703704,0,0,0.03703703703703704,11.074074074074076,0)" xlink:href="#bl"/><use transform="matrix(0.03703703703703704,0,0,0.03703703703703704,18.481481481481485,0)" xlink:href="#bm"/><use transform="matrix(0.03703703703703704,0,0,0.03703703703703704,22.888888888888893,0)" xlink:href="#bn"/><use transform="matrix(0.03703703703703704,0,0,0.03703703703703704,31.000000000000007,0)" xlink:href="#bo"/><use transform="matrix(0.03703703703703704,0,0,0.03703703703703704,39.11111111111112,0)" xlink:href="#bp"/></g><g id="z"><use transform="matrix(0.03703703703703704,0,0,0.03703703703703704,0,0)" xlink:href="#bm"/><use transform="matrix(0.03703703703703704,0,0,0.03703703703703704,4.407407407407408,0)" xlink:href="#bo"/></g><path d="M121-226c-27-7-43 5-38 36h38v33H83V0H34v-157H6v-33h28c-9-59 32-81 87-68v32" id="bq"/><path d="M190-63c-7 42-38 67-86 67-59 0-84-38-90-98-12-110 154-137 174-36l-49 2c-2-19-15-32-35-32-30 0-35 28-38 64-6 74 65 87 74 30" id="br"/><g id="A"><use transform="matrix(0.03703703703703704,0,0,0.03703703703703704,0,0)" xlink:href="#bq"/><use transform="matrix(0.03703703703703704,0,0,0.03703703703703704,4.407407407407408,0)" xlink:href="#bl"/><use transform="matrix(0.03703703703703704,0,0,0.03703703703703704,11.814814814814817,0)" xlink:href="#bm"/><use transform="matrix(0.03703703703703704,0,0,0.03703703703703704,16.222222222222225,0)" xlink:href="#br"/><use transform="matrix(0.03703703703703704,0,0,0.03703703703703704,23.629629629629633,0)" xlink:href="#bn"/></g><path d="M136-208V0H84v-208H4v-40h212v40h-80" id="bs"/><path d="M231 0h-52l-39-155L100 0H48L-1-190h46L77-45c9-52 24-97 36-145h53l37 145 32-145h46" id="bt"/><path d="M137-138c1-29-70-34-71-4 15 46 118 7 119 86 1 83-164 76-172 9l43-7c4 19 20 25 44 25 33 8 57-30 24-41C81-84 22-81 20-136c-2-80 154-74 161-7" id="bu"/><g id="B"><use transform="matrix(0.03703703703703704,0,0,0.03703703703703704,0,0)" xlink:href="#bs"/><use transform="matrix(0.03703703703703704,0,0,0.03703703703703704,7.1111111111111125,0)" xlink:href="#bt"/><use transform="matrix(0.03703703703703704,0,0,0.03703703703703704,17.481481481481485,0)" xlink:href="#bl"/><use transform="matrix(0.03703703703703704,0,0,0.03703703703703704,24.888888888888893,0)" xlink:href="#bl"/><use transform="matrix(0.03703703703703704,0,0,0.03703703703703704,32.296296296296305,0)" xlink:href="#bm"/><use transform="matrix(0.03703703703703704,0,0,0.03703703703703704,36.70370370370371,0)" xlink:href="#bu"/></g><path d="M133-34C117-15 103 5 69 4 32 3 11-16 11-54c-1-60 55-63 116-61 1-26-3-47-28-47-18 1-26 9-28 27l-52-2c7-38 36-58 82-57s74 22 75 68l1 82c-1 14 12 18 25 15v27c-30 8-71 5-69-32zm-48 3c29 0 43-24 42-57-32 0-66-3-65 30 0 17 8 27 23 27" id="bv"/><path d="M135-194c87-1 58 113 63 194h-50c-7-57 23-157-34-157-59 0-34 97-39 157H25l-1-190h47c2 12-1 28 3 38 12-26 28-41 61-42" id="bw"/><g id="C"><use transform="matrix(0.03703703703703704,0,0,0.03703703703703704,0,0)" xlink:href="#bv"/><use transform="matrix(0.03703703703703704,0,0,0.03703703703703704,7.407407407407408,0)" xlink:href="#bw"/><use transform="matrix(0.03703703703703704,0,0,0.03703703703703704,15.51851851851852,0)" xlink:href="#bp"/></g><path d="M240-174c0 40-23 61-54 70L253 0h-59l-57-94H76V0H24v-248c93 4 217-23 216 74zM76-134c48-2 112 12 112-38 0-48-66-32-112-35v73" id="bx"/><path d="M135-194c53 0 70 44 70 98 0 56-19 98-73 100-31 1-45-17-59-34 3 33 2 69 2 105H25l-1-265h48c2 10 0 23 3 31 11-24 29-35 60-35zM114-30c33 0 39-31 40-66 0-38-9-64-40-64-56 0-55 130 0 130" id="by"/><path d="M25 0v-261h50V0H25" id="bz"/><path d="M25-224v-37h50v37H25zM25 0v-190h50V0H25" id="bA"/><g id="D"><use transform="matrix(0.03703703703703704,0,0,0.03703703703703704,0,0)" xlink:href="#bx"/><use transform="matrix(0.03703703703703704,0,0,0.03703703703703704,9.592592592592593,0)" xlink:href="#bl"/><use transform="matrix(0.03703703703703704,0,0,0.03703703703703704,17,0)" xlink:href="#by"/><use transform="matrix(0.03703703703703704,0,0,0.03703703703703704,25.111111111111114,0)" xlink:href="#bz"/><use transform="matrix(0.03703703703703704,0,0,0.03703703703703704,28.81481481481482,0)" xlink:href="#bA"/><use transform="matrix(0.03703703703703704,0,0,0.03703703703703704,32.51851851851852,0)" xlink:href="#bl"/><use transform="matrix(0.03703703703703704,0,0,0.03703703703703704,39.925925925925924,0)" xlink:href="#bu"/></g><path d="M123 10C108 53 80 86 19 72V37c35 8 53-11 59-39L3-190h52l48 148c12-52 28-100 44-148h51" id="bB"/><path d="M85 4C-2 5 27-109 22-190h50c7 57-23 150 33 157 60-5 35-97 40-157h50l1 190h-47c-2-12 1-28-3-38-12 25-28 42-61 42" id="bC"/><g id="E"><use transform="matrix(0.03703703703703704,0,0,0.03703703703703704,0,0)" xlink:href="#bB"/><use transform="matrix(0.03703703703703704,0,0,0.03703703703703704,7.407407407407408,0)" xlink:href="#bo"/><use transform="matrix(0.03703703703703704,0,0,0.03703703703703704,15.51851851851852,0)" xlink:href="#bC"/></g><path d="M147 0L96-86 75-71V0H25v-261h50v150l67-79h53l-66 74L201 0h-54" id="bD"/><g id="F"><use transform="matrix(0.03703703703703704,0,0,0.03703703703703704,0,0)" xlink:href="#bz"/><use transform="matrix(0.03703703703703704,0,0,0.03703703703703704,3.703703703703704,0)" xlink:href="#bA"/><use transform="matrix(0.03703703703703704,0,0,0.03703703703703704,7.407407407407408,0)" xlink:href="#bD"/><use transform="matrix(0.03703703703703704,0,0,0.03703703703703704,14.814814814814817,0)" xlink:href="#bl"/><use transform="matrix(0.03703703703703704,0,0,0.03703703703703704,22.222222222222225,0)" xlink:href="#bp"/></g><path d="M76-208v77h127v40H76V0H24v-248h183v40H76" id="bE"/><path d="M135-150c-39-12-60 13-60 57V0H25l-1-190h47c2 13-1 29 3 40 6-28 27-53 61-41v41" id="bF"/><g id="G"><use transform="matrix(0.037037037037037035,0,0,0.037037037037037035,0,0)" xlink:href="#bE"/><use transform="matrix(0.037037037037037035,0,0,0.037037037037037035,8.11111111111111,0)" xlink:href="#bo"/><use transform="matrix(0.037037037037037035,0,0,0.037037037037037035,16.22222222222222,0)" xlink:href="#bF"/></g><path d="M128 0H69L1-190h53L99-40l48-150h52" id="bG"/><g id="H"><use transform="matrix(0.037037037037037035,0,0,0.037037037037037035,0,0)" xlink:href="#bl"/><use transform="matrix(0.037037037037037035,0,0,0.037037037037037035,7.4074074074074066,0)" xlink:href="#bG"/><use transform="matrix(0.037037037037037035,0,0,0.037037037037037035,14.814814814814813,0)" xlink:href="#bl"/><use transform="matrix(0.037037037037037035,0,0,0.037037037037037035,22.22222222222222,0)" xlink:href="#bF"/><use transform="matrix(0.037037037037037035,0,0,0.037037037037037035,27.407407407407405,0)" xlink:href="#bB"/></g><path d="M76-54c-1 42 2 86-19 110H24C36 42 46 24 48 0H25v-54h51" id="bH"/><g id="I"><use transform="matrix(0.037037037037037035,0,0,0.037037037037037035,0,0)" xlink:href="#bs"/><use transform="matrix(0.037037037037037035,0,0,0.037037037037037035,7.111111111111111,0)" xlink:href="#bt"/><use transform="matrix(0.037037037037037035,0,0,0.037037037037037035,17.48148148148148,0)" xlink:href="#bl"/><use transform="matrix(0.037037037037037035,0,0,0.037037037037037035,24.888888888888886,0)" xlink:href="#bl"/><use transform="matrix(0.037037037037037035,0,0,0.037037037037037035,32.29629629629629,0)" xlink:href="#bm"/><path d="M-.67.72h38.04v1.4H-.67z"/><use transform="matrix(0.037037037037037035,0,0,0.037037037037037035,36.703703703703695,0)" xlink:href="#bH"/></g><g id="J"><use transform="matrix(0.037037037037037035,0,0,0.037037037037037035,0,0)" xlink:href="#bt"/><use transform="matrix(0.037037037037037035,0,0,0.037037037037037035,10.37037037037037,0)" xlink:href="#bl"/></g><path d="M35-132v-50h50v50H35zM35 0v-49h50V0H35" id="bI"/><g id="K"><use transform="matrix(0.037037037037037035,0,0,0.037037037037037035,0,0)" xlink:href="#bw"/><use transform="matrix(0.037037037037037035,0,0,0.037037037037037035,8.11111111111111,0)" xlink:href="#bl"/><use transform="matrix(0.037037037037037035,0,0,0.037037037037037035,15.518518518518517,0)" xlink:href="#bl"/><use transform="matrix(0.037037037037037035,0,0,0.037037037037037035,22.925925925925924,0)" xlink:href="#bp"/><use transform="matrix(0.037037037037037035,0,0,0.037037037037037035,31.037037037037035,0)" xlink:href="#bI"/></g><path d="M14-72v-43h91v43H14" id="bJ"/><use transform="matrix(0.037037037037037035,0,0,0.037037037037037035,0,0)" xlink:href="#bJ" id="L"/><g id="M"><use transform="matrix(0.037037037037037035,0,0,0.037037037037037035,0,0)" xlink:href="#bm"/><use transform="matrix(0.037037037037037035,0,0,0.037037037037037035,4.407407407407407,0)" xlink:href="#bn"/><use transform="matrix(0.037037037037037035,0,0,0.037037037037037035,12.518518518518519,0)" xlink:href="#bl"/></g><g id="N"><use transform="matrix(0.037037037037037035,0,0,0.037037037037037035,0,0)" xlink:href="#bs"/><use transform="matrix(0.037037037037037035,0,0,0.037037037037037035,7.111111111111111,0)" xlink:href="#bt"/><use transform="matrix(0.037037037037037035,0,0,0.037037037037037035,17.48148148148148,0)" xlink:href="#bl"/><use transform="matrix(0.037037037037037035,0,0,0.037037037037037035,24.888888888888886,0)" xlink:href="#bl"/><use transform="matrix(0.037037037037037035,0,0,0.037037037037037035,32.29629629629629,0)" xlink:href="#bm"/></g><g id="O"><use transform="matrix(0.037037037037037035,0,0,0.037037037037037035,0,0)" xlink:href="#br"/><use transform="matrix(0.037037037037037035,0,0,0.037037037037037035,7.4074074074074066,0)" xlink:href="#bF"/><use transform="matrix(0.037037037037037035,0,0,0.037037037037037035,12.592592592592592,0)" xlink:href="#bl"/><use transform="matrix(0.037037037037037035,0,0,0.037037037037037035,20,0)" xlink:href="#bv"/><use transform="matrix(0.037037037037037035,0,0,0.037037037037037035,27.407407407407405,0)" xlink:href="#bm"/><use transform="matrix(0.037037037037037035,0,0,0.037037037037037035,31.814814814814813,0)" xlink:href="#bo"/><use transform="matrix(0.037037037037037035,0,0,0.037037037037037035,39.925925925925924,0)" xlink:href="#bF"/></g><g id="P"><use transform="matrix(0.037037037037037035,0,0,0.037037037037037035,0,0)" xlink:href="#bs"/><use transform="matrix(0.037037037037037035,0,0,0.037037037037037035,7.111111111111111,0)" xlink:href="#bt"/><use transform="matrix(0.037037037037037035,0,0,0.037037037037037035,17.48148148148148,0)" xlink:href="#bl"/><use transform="matrix(0.037037037037037035,0,0,0.037037037037037035,24.888888888888886,0)" xlink:href="#bl"/><use transform="matrix(0.037037037037037035,0,0,0.037037037037037035,32.29629629629629,0)" xlink:href="#bm"/></g><path d="M144 0l-44-69L55 0H2l70-98-66-92h53l41 62 40-62h54l-67 91 71 99h-54" id="bK"/><g id="Q"><use transform="matrix(0.037037037037037035,0,0,0.037037037037037035,0,0)" xlink:href="#bm"/><use transform="matrix(0.037037037037037035,0,0,0.037037037037037035,4.407407407407407,0)" xlink:href="#bl"/><use transform="matrix(0.037037037037037035,0,0,0.037037037037037035,11.814814814814811,0)" xlink:href="#bK"/><use transform="matrix(0.037037037037037035,0,0,0.037037037037037035,19.22222222222222,0)" xlink:href="#bm"/></g><path d="M220-157c-53 9-28 100-34 157h-49v-107c1-27-5-49-29-50C55-147 81-57 75 0H25l-1-190h47c2 12-1 28 3 38 10-53 101-56 108 0 13-22 24-43 59-42 82 1 51 116 57 194h-49v-107c-1-25-5-48-29-50" id="bL"/><path d="M195-6C206 82 75 100 31 46c-4-6-6-13-8-21l49-6c3 16 16 24 34 25 40 0 42-37 40-79-11 22-30 35-61 35-53 0-70-43-70-97 0-56 18-96 73-97 30 0 46 14 59 34l2-30h47zm-90-29c32 0 41-27 41-63 0-35-9-62-40-62-32 0-39 29-40 63 0 36 9 62 39 62" id="bM"/><g id="R"><use transform="matrix(0.037037037037037035,0,0,0.037037037037037035,0,0)" xlink:href="#bA"/><use transform="matrix(0.037037037037037035,0,0,0.037037037037037035,3.7037037037037033,0)" xlink:href="#bL"/><use transform="matrix(0.037037037037037035,0,0,0.037037037037037035,15.555555555555552,0)" xlink:href="#bM"/></g><path d="M160-152l-12 59h37v26h-43L128 0h-28l14-67H60L46 0H20l13-67H6v-26h33l13-59H15v-26h42l15-67h27l-15 67h54l15-67h27l-14 67h28v26h-34zm-81 0L66-93h55l12-59H79" id="bN"/><use transform="matrix(0.037037037037037035,0,0,0.037037037037037035,0,0)" xlink:href="#bN" id="S"/><g id="T"><use transform="matrix(0.037037037037037035,0,0,0.037037037037037035,0,0)" xlink:href="#bo"/><use transform="matrix(0.037037037037037035,0,0,0.037037037037037035,8.11111111111111,0)" xlink:href="#bq"/></g><path d="M24 0v-248h52v208h133V0H24" id="bO"/><g id="U"><use transform="matrix(0.037037037037037035,0,0,0.037037037037037035,0,0)" xlink:href="#bO"/><use transform="matrix(0.037037037037037035,0,0,0.037037037037037035,8.11111111111111,0)" xlink:href="#bA"/><use transform="matrix(0.037037037037037035,0,0,0.037037037037037035,11.814814814814811,0)" xlink:href="#bD"/><use transform="matrix(0.037037037037037035,0,0,0.037037037037037035,19.22222222222222,0)" xlink:href="#bl"/><use transform="matrix(0.037037037037037035,0,0,0.037037037037037035,26.62962962962963,0)" xlink:href="#bu"/><use transform="matrix(0.037037037037037035,0,0,0.037037037037037035,34.03703703703703,0)" xlink:href="#bH"/></g><path d="M67-125c0 53 21 87 73 88 37 1 54-22 65-47l45 17C233-25 199 4 140 4 58 4 20-42 15-125 8-235 124-281 211-232c18 10 29 29 36 50l-46 12c-8-25-30-41-62-41-52 0-71 34-72 86" id="bP"/><g id="V"><use transform="matrix(0.037037037037037035,0,0,0.037037037037037035,0,0)" xlink:href="#bP"/><use transform="matrix(0.037037037037037035,0,0,0.037037037037037035,9.592592592592592,0)" xlink:href="#bo"/><use transform="matrix(0.037037037037037035,0,0,0.037037037037037035,17.703703703703702,0)" xlink:href="#bL"/><use transform="matrix(0.037037037037037035,0,0,0.037037037037037035,29.555555555555554,0)" xlink:href="#bL"/><use transform="matrix(0.037037037037037035,0,0,0.037037037037037035,41.407407407407405,0)" xlink:href="#bl"/><use transform="matrix(0.037037037037037035,0,0,0.037037037037037035,48.81481481481481,0)" xlink:href="#bw"/><use transform="matrix(0.037037037037037035,0,0,0.037037037037037035,56.925925925925924,0)" xlink:href="#bm"/><use transform="matrix(0.037037037037037035,0,0,0.037037037037037035,61.33333333333333,0)" xlink:href="#bu"/><use transform="matrix(0.037037037037037035,0,0,0.037037037037037035,68.74074074074073,0)" xlink:href="#bH"/></g><g id="W"><use transform="matrix(0.037037037037037035,0,0,0.037037037037037035,0,0)" xlink:href="#bv"/><use transform="matrix(0.037037037037037035,0,0,0.037037037037037035,7.4074074074074066,0)" xlink:href="#bw"/><use transform="matrix(0.037037037037037035,0,0,0.037037037037037035,15.518518518518517,0)" xlink:href="#bp"/></g><g id="X"><use transform="matrix(0.037037037037037035,0,0,0.037037037037037035,0,0)" xlink:href="#bx"/><use transform="matrix(0.037037037037037035,0,0,0.037037037037037035,9.592592592592592,0)" xlink:href="#bl"/><use transform="matrix(0.037037037037037035,0,0,0.037037037037037035,17,0)" xlink:href="#bm"/><use transform="matrix(0.037037037037037035,0,0,0.037037037037037035,21.407407407407412,0)" xlink:href="#bt"/><use transform="matrix(0.037037037037037035,0,0,0.037037037037037035,31.77777777777778,0)" xlink:href="#bl"/><use transform="matrix(0.037037037037037035,0,0,0.037037037037037035,39.18518518518518,0)" xlink:href="#bl"/><use transform="matrix(0.037037037037037035,0,0,0.037037037037037035,46.59259259259259,0)" xlink:href="#bm"/><use transform="matrix(0.037037037037037035,0,0,0.037037037037037035,50.999999999999986,0)" xlink:href="#bu"/></g><g id="Y"><use transform="matrix(0.037037037037037035,0,0,0.037037037037037035,0,0)" xlink:href="#bs"/><use transform="matrix(0.037037037037037035,0,0,0.037037037037037035,7.111111111111111,0)" xlink:href="#bt"/><use transform="matrix(0.037037037037037035,0,0,0.037037037037037035,17.48148148148148,0)" xlink:href="#bl"/><use transform="matrix(0.037037037037037035,0,0,0.037037037037037035,24.888888888888886,0)" xlink:href="#bl"/><use transform="matrix(0.037037037037037035,0,0,0.037037037037037035,32.29629629629629,0)" xlink:href="#bm"/><use transform="matrix(0.037037037037037035,0,0,0.037037037037037035,36.703703703703695,0)" xlink:href="#bJ"/><use transform="matrix(0.037037037037037035,0,0,0.037037037037037035,41.1111111111111,0)" xlink:href="#bx"/><use transform="matrix(0.037037037037037035,0,0,0.037037037037037035,50.703703703703695,0)" xlink:href="#bl"/><use transform="matrix(0.037037037037037035,0,0,0.037037037037037035,58.1111111111111,0)" xlink:href="#by"/><use transform="matrix(0.037037037037037035,0,0,0.037037037037037035,66.22222222222221,0)" xlink:href="#bz"/><use transform="matrix(0.037037037037037035,0,0,0.037037037037037035,69.92592592592592,0)" xlink:href="#bB"/><path d="M-.67.72H78v1.4H-.67z"/><use transform="matrix(0.037037037037037035,0,0,0.037037037037037035,77.33333333333333,0)" xlink:href="#bH"/></g><path d="M238-95c0 69-44 99-111 99C63 4 22-25 22-93v-155h51v151c-1 38 19 59 55 60 90 1 49-130 58-211h52v153" id="bQ"/><g id="Z"><use transform="matrix(0.037037037037037035,0,0,0.037037037037037035,0,0)" xlink:href="#bQ"/><use transform="matrix(0.037037037037037035,0,0,0.037037037037037035,9.592592592592592,0)" xlink:href="#bu"/><use transform="matrix(0.037037037037037035,0,0,0.037037037037037035,17,0)" xlink:href="#bl"/><use transform="matrix(0.037037037037037035,0,0,0.037037037037037035,24.407407407407405,0)" xlink:href="#bF"/></g><g id="aa"><use transform="matrix(0.037037037037037035,0,0,0.037037037037037035,0,0)" xlink:href="#bF"/><use transform="matrix(0.037037037037037035,0,0,0.037037037037037035,5.185185185185185,0)" xlink:href="#bl"/><use transform="matrix(0.037037037037037035,0,0,0.037037037037037035,12.592592592592592,0)" xlink:href="#by"/><use transform="matrix(0.037037037037037035,0,0,0.037037037037037035,20.703703703703702,0)" xlink:href="#bz"/><use transform="matrix(0.037037037037037035,0,0,0.037037037037037035,24.407407407407405,0)" xlink:href="#bA"/><use transform="matrix(0.037037037037037035,0,0,0.037037037037037035,28.111111111111104,0)" xlink:href="#bl"/><use transform="matrix(0.037037037037037035,0,0,0.037037037037037035,35.51851851851851,0)" xlink:href="#bp"/></g><g id="ab"><use transform="matrix(0.037037037037037035,0,0,0.037037037037037035,0,0)" xlink:href="#bm"/><use transform="matrix(0.037037037037037035,0,0,0.037037037037037035,4.407407407407407,0)" xlink:href="#bo"/></g><g id="ac"><use transform="matrix(0.037037037037037035,0,0,0.037037037037037035,0,0)" xlink:href="#bo"/><use transform="matrix(0.037037037037037035,0,0,0.037037037037037035,8.11111111111111,0)" xlink:href="#bF"/><use transform="matrix(0.037037037037037035,0,0,0.037037037037037035,13.296296296296296,0)" xlink:href="#bA"/><use transform="matrix(0.037037037037037035,0,0,0.037037037037037035,17,0)" xlink:href="#bM"/><use transform="matrix(0.037037037037037035,0,0,0.037037037037037035,25.11111111111111,0)" xlink:href="#bA"/><use transform="matrix(0.037037037037037035,0,0,0.037037037037037035,28.814814814814813,0)" xlink:href="#bw"/><use transform="matrix(0.037037037037037035,0,0,0.037037037037037035,36.925925925925924,0)" xlink:href="#bv"/><use transform="matrix(0.037037037037037035,0,0,0.037037037037037035,44.33333333333333,0)" xlink:href="#bz"/></g><g id="ad"><use transform="matrix(0.037037037037037035,0,0,0.037037037037037035,0,0)" xlink:href="#bs"/><use transform="matrix(0.037037037037037035,0,0,0.037037037037037035,7.111111111111111,0)" xlink:href="#bt"/><use transform="matrix(0.037037037037037035,0,0,0.037037037037037035,17.48148148148148,0)" xlink:href="#bl"/><use transform="matrix(0.037037037037037035,0,0,0.037037037037037035,24.888888888888886,0)" xlink:href="#bl"/><use transform="matrix(0.037037037037037035,0,0,0.037037037037037035,32.29629629629629,0)" xlink:href="#bm"/></g><g id="ae"><use transform="matrix(0.037037037037037035,0,0,0.037037037037037035,0,0)" xlink:href="#bx"/><use transform="matrix(0.037037037037037035,0,0,0.037037037037037035,9.592592592592592,0)" xlink:href="#bl"/><use transform="matrix(0.037037037037037035,0,0,0.037037037037037035,17,0)" xlink:href="#bm"/><use transform="matrix(0.037037037037037035,0,0,0.037037037037037035,21.407407407407412,0)" xlink:href="#bt"/><use transform="matrix(0.037037037037037035,0,0,0.037037037037037035,31.77777777777778,0)" xlink:href="#bl"/><use transform="matrix(0.037037037037037035,0,0,0.037037037037037035,39.18518518518518,0)" xlink:href="#bl"/><use transform="matrix(0.037037037037037035,0,0,0.037037037037037035,46.59259259259259,0)" xlink:href="#bm"/><path d="M-.67.72h52.33v1.4H-.67z"/><use transform="matrix(0.037037037037037035,0,0,0.037037037037037035,50.999999999999986,0)" xlink:href="#bH"/></g><g id="af"><use transform="matrix(0.037037037037037035,0,0,0.037037037037037035,0,0)" xlink:href="#bO"/><use transform="matrix(0.037037037037037035,0,0,0.037037037037037035,8.11111111111111,0)" xlink:href="#bA"/><use transform="matrix(0.037037037037037035,0,0,0.037037037037037035,11.814814814814811,0)" xlink:href="#bD"/><use transform="matrix(0.037037037037037035,0,0,0.037037037037037035,19.22222222222222,0)" xlink:href="#bl"/><use transform="matrix(0.037037037037037035,0,0,0.037037037037037035,26.62962962962963,0)" xlink:href="#bu"/></g><g id="ag"><use transform="matrix(0.037037037037037035,0,0,0.037037037037037035,0,0)" xlink:href="#bx"/><use transform="matrix(0.037037037037037035,0,0,0.037037037037037035,9.592592592592592,0)" xlink:href="#bl"/><use transform="matrix(0.037037037037037035,0,0,0.037037037037037035,17,0)" xlink:href="#bm"/><use transform="matrix(0.037037037037037035,0,0,0.037037037037037035,21.407407407407412,0)" xlink:href="#bt"/><use transform="matrix(0.037037037037037035,0,0,0.037037037037037035,31.77777777777778,0)" xlink:href="#bl"/><use transform="matrix(0.037037037037037035,0,0,0.037037037037037035,39.18518518518518,0)" xlink:href="#bl"/><use transform="matrix(0.037037037037037035,0,0,0.037037037037037035,46.59259259259259,0)" xlink:href="#bm"/><use transform="matrix(0.037037037037037035,0,0,0.037037037037037035,50.999999999999986,0)" xlink:href="#bu"/></g><path d="M67-93c0 74 22 123 53 168H70C40 30 18-18 18-93s22-123 52-168h50c-32 44-53 94-53 168" id="bR"/><g id="ah"><use transform="matrix(0.037037037037037035,0,0,0.037037037037037035,0,0)" xlink:href="#bR"/><use transform="matrix(0.037037037037037035,0,0,0.037037037037037035,4.407407407407407,0)" xlink:href="#bq"/><use transform="matrix(0.037037037037037035,0,0,0.037037037037037035,8.814814814814815,0)" xlink:href="#bo"/><use transform="matrix(0.037037037037037035,0,0,0.037037037037037035,16.925925925925924,0)" xlink:href="#bF"/></g><path d="M140-251c80 0 125 45 125 126S219 4 139 4C58 4 15-44 15-125s44-126 125-126zm-1 214c52 0 73-35 73-88 0-50-21-86-72-86-52 0-73 35-73 86s22 88 72 88" id="bS"/><g id="ai"><use transform="matrix(0.037037037037037035,0,0,0.037037037037037035,0,0)" xlink:href="#bS"/><use transform="matrix(0.037037037037037035,0,0,0.037037037037037035,10.37037037037037,0)" xlink:href="#bF"/><use transform="matrix(0.037037037037037035,0,0,0.037037037037037035,15.555555555555555,0)" xlink:href="#bA"/><use transform="matrix(0.037037037037037035,0,0,0.037037037037037035,19.25925925925926,0)" xlink:href="#bM"/><use transform="matrix(0.037037037037037035,0,0,0.037037037037037035,27.37037037037037,0)" xlink:href="#bA"/><use transform="matrix(0.037037037037037035,0,0,0.037037037037037035,31.074074074074073,0)" xlink:href="#bw"/><use transform="matrix(0.037037037037037035,0,0,0.037037037037037035,39.18518518518518,0)" xlink:href="#bv"/><use transform="matrix(0.037037037037037035,0,0,0.037037037037037035,46.59259259259259,0)" xlink:href="#bz"/></g><path d="M102-93c0 74-22 123-52 168H0C30 29 54-18 53-93c0-74-22-123-53-168h50c30 45 52 94 52 168" id="bT"/><g id="aj"><use transform="matrix(0.037037037037037035,0,0,0.037037037037037035,0,0)" xlink:href="#bm"/><use transform="matrix(0.037037037037037035,0,0,0.037037037037037035,4.407407407407407,0)" xlink:href="#bt"/><use transform="matrix(0.037037037037037035,0,0,0.037037037037037035,14.777777777777779,0)" xlink:href="#bl"/><use transform="matrix(0.037037037037037035,0,0,0.037037037037037035,22.185185185185183,0)" xlink:href="#bl"/><use transform="matrix(0.037037037037037035,0,0,0.037037037037037035,29.592592592592588,0)" xlink:href="#bm"/><use transform="matrix(0.037037037037037035,0,0,0.037037037037037035,33.99999999999999,0)" xlink:href="#bT"/></g></defs></g></svg>